<svg xmlns="http://www.w3.org/2000/svg" width="20.963" height="19.182" viewBox="0 0 20.963 19.182"><defs><style>.a{fill:#fff;}</style></defs><path class="a" d="M20.59,20.311l-5.565-4.517a8.221,8.221,0,0,0-.884-10.639A8.219,8.219,0,0,0,2.455,5.122,8.315,8.315,0,0,0,8.314,19.3a8.026,8.026,0,0,0,5.6-2.193l5.663,4.616a.669.669,0,0,0,.524.164.775.775,0,0,0,.687-.36A.84.84,0,0,0,20.59,20.311ZM8.282,17.529A6.436,6.436,0,0,1,3.666,15.6a6.571,6.571,0,0,1-1.931-4.616A6.436,6.436,0,0,1,3.666,6.366,6.63,6.63,0,0,1,8.282,4.435,6.436,6.436,0,0,1,12.9,6.366a6.63,6.63,0,0,1,1.931,4.616A6.436,6.436,0,0,1,12.9,15.6,6.38,6.38,0,0,1,8.282,17.529Z" transform="translate(0 -2.7)"/></svg>
