<svg id="Group_5" data-name="Group 5" xmlns="http://www.w3.org/2000/svg" width="18.712" height="24.95" viewBox="0 0 18.712 24.95">
  <g id="map-marker">
    <path id="Path_115" data-name="Path 115" d="M17.356,0A9.577,9.577,0,0,0,8,9.863c0,4.678,6.432,12.358,8.42,14.658a1.125,1.125,0,0,0,.936.429,1.19,1.19,0,0,0,.936-.429c1.988-2.261,8.42-10.058,8.42-14.658A9.577,9.577,0,0,0,17.356,0Zm0,22.455c-3.548-4.171-7.29-9.668-7.29-12.592a7.5,7.5,0,0,1,7.29-7.8,7.574,7.574,0,0,1,7.29,7.8C24.646,12.787,20.9,18.283,17.356,22.455Z" transform="translate(-8)"/>
    <path id="Path_116" data-name="Path 116" d="M24.8,13.3a3.5,3.5,0,1,0,3.5,3.5A3.507,3.507,0,0,0,24.8,13.3Zm0,5.237A1.735,1.735,0,1,1,26.537,16.8,1.746,1.746,0,0,1,24.8,18.537Z" transform="translate(-15.446 -7.698)"/>
  </g>
</svg>
