<svg xmlns="http://www.w3.org/2000/svg" width="15.712" height="25.067" viewBox="0 0 15.712 25.067"><defs><style>.a{fill:black;}</style></defs><path class="a" d="M15.856,0A8.042,8.042,0,0,0,8,8.282c0,3.928,5.4,10.377,7.071,12.308a.944.944,0,0,0,.786.36,1,1,0,0,0,.786-.36c1.669-1.9,7.071-8.445,7.071-12.308A8.042,8.042,0,0,0,15.856,0Zm0,18.855c-2.979-3.5-6.121-8.118-6.121-10.573a6.3,6.3,0,0,1,6.121-6.547,6.36,6.36,0,0,1,6.121,6.547C21.978,10.737,18.835,15.352,15.856,18.855Z" transform="translate(-8)"/><path class="a" d="M24.8,13.3a3.5,3.5,0,1,0,3.5,3.5A3.507,3.507,0,0,0,24.8,13.3Zm0,5.237A1.735,1.735,0,1,1,26.537,16.8,1.746,1.746,0,0,1,24.8,18.537Z" transform="translate(-16.946 -8.946)"/><path class="a" d="M10.724,29.3H.472c-.28,0-.472.36-.472.884s.192.884.472.884H10.741c.28,0,.472-.36.472-.884C11.2,29.66,11,29.3,10.724,29.3Z" transform="translate(2.255 -6.001)"/></svg>
