<svg xmlns="http://www.w3.org/2000/svg" width="50.133" height="35.25" viewBox="0 0 50.133 35.25"><g transform="translate(-290.125 -255.707)"><path d="M13.5,0C20.956,0,27,6.492,27,14.5S20.956,29,13.5,29,0,22.508,0,14.5,6.044,0,13.5,0Z" transform="translate(303.191 261.957)" fill="#fff"/><path d="M24.019-29.735A6.3,6.3,0,0,0,19.587-34.2C15.677-35.25,0-35.25,0-35.25s-15.677,0-19.587,1.054a6.3,6.3,0,0,0-4.432,4.461c-1.048,3.935-1.048,12.145-1.048,12.145s0,8.21,1.048,12.145a6.205,6.205,0,0,0,4.432,4.39C-15.677,0,0,0,0,0S15.677,0,19.587-1.054a6.205,6.205,0,0,0,4.432-4.39c1.048-3.935,1.048-12.145,1.048-12.145S25.067-25.8,24.019-29.735Zm-29.146,19.6V-25.044l13.1,7.454Z" transform="translate(315.191 290.957)" fill="red"/></g></svg>
