<svg xmlns="http://www.w3.org/2000/svg" width="20.481" height="20.481" viewBox="0 0 20.481 20.481">
  <defs>
    <style>
      .cls-1 {
        fill: white;
      }
    </style>
  </defs>
  <path id="Union_2" data-name="Union 2" class="cls-1" d="M-7415.835,20.572l-8.208-8.208-8.208,8.208a1.118,1.118,0,0,1-1.662,0,1.118,1.118,0,0,1,0-1.663l8.208-8.208-8.208-8.208a1.118,1.118,0,0,1,0-1.663,1.118,1.118,0,0,1,1.662,0l8.208,8.208,8.177-8.176a1.179,1.179,0,0,1,1.693-.032,1.118,1.118,0,0,1,0,1.663l-8.208,8.208,8.177,8.176a1.179,1.179,0,0,1,.031,1.694,1.166,1.166,0,0,1-.829.37A1.178,1.178,0,0,1-7415.835,20.572Z" transform="translate(7434.284 -0.461)"/>
</svg>
