<svg id="logo-redken" xmlns="http://www.w3.org/2000/svg" width="129" height="33" viewBox="0 0 129 33">
  <defs>
    <style>
      .logo-redken {
        fill: #fff;
      }
    </style>
  </defs>
  <path id="logo-redken" class="logo-redken" d="M-1544.222-158.341a2.027,2.027,0,0,1,.774-1.654,2.912,2.912,0,0,1,1.831-.59,4.834,4.834,0,0,1,1.465.251l-.128.533h-.287s.081-.362-.38-.487a3.465,3.465,0,0,0-.777-.064,1.763,1.763,0,0,0-1.819,1.912,1.923,1.923,0,0,0,2.085,2,2.463,2.463,0,0,0,1.287-.369l.057.062-.178.307a3.18,3.18,0,0,1-1.382.332A2.249,2.249,0,0,1-1544.222-158.341Zm-46.91.779v-2.183a1.04,1.04,0,0,0-.058-.461c-.037-.061-.039-.087-.191-.092l-.032-.019v-.184h1.168v.184l-.033.019c-.152,0-.158.031-.195.092a1.054,1.054,0,0,0-.057.461v2.114c0,.873.469,1.125,1.305,1.125a1.139,1.139,0,0,0,1.306-1.272v-1.967a1.071,1.071,0,0,0-.056-.461c-.038-.061-.044-.08-.2-.092l-.008-.019v-.184c.74.005.424.008.834,0v.184l-.008.019c-.153.012-.177.031-.215.092a1.04,1.04,0,0,0-.057.461v1.777c0,1.315-.514,1.844-1.795,1.844C-1590.5-156.124-1591.132-156.438-1591.132-157.562Zm-77.506,1.053.04-.1a1.65,1.65,0,0,0,.54.076c.906,0,1.549-.466,1.595-1.2a.966.966,0,0,0-1.062-1,2.574,2.574,0,0,0-.732.177l-.062-.038,0-1.919,2.393.01v.482h-2.106l.005,1.06a2.244,2.244,0,0,1,.7-.139,1.271,1.271,0,0,1,1.4,1.25c-.04.936-1.174,1.687-2.332,1.687A1.974,1.974,0,0,0-1668.638-156.509Zm48.415.337a8.608,8.608,0,0,0-.368-1.015l-1.193-2.84c-.082-.2-.17-.247-.277-.252l-.05-.018v-.184h1.191v.184l-.107.018c-.12.005-.18.043-.122.191l1.249,3.116,1.16-2.907c.133-.331.061-.387-.1-.4l-.084-.018v-.184h.918v.184l-.045.018c-.132.013-.215.148-.341.444l-1.1,2.587a9.755,9.755,0,0,0-.406,1.076Zm-8.564-.038v-.184l.074-.019c.133-.006.214-.049.214-.123a1.389,1.389,0,0,0-.134-.394l-.291-.706h-1.826l-.177.411a3.5,3.5,0,0,0-.222.639c0,.13.039.154.236.173l.055.019v.184h-1.016v-.184l.039-.019a.449.449,0,0,0,.342-.3l1.129-2.488c.2-.43.411-.885.583-1.327h.2l1.535,3.491a4.339,4.339,0,0,0,.2.418c.069.117.139.2.253.209l.059.019v.184Zm-1.855-1.671h1.6l-.8-1.832Zm49.71,1.488s.2-.049.241-.11a1.061,1.061,0,0,0,.058-.462v-2.76a1.047,1.047,0,0,0-.058-.46c-.038-.062-.049-.088-.2-.093l-.033-.019v-.212h3.05l-.1.519-.222,0v-.047c0-.079,0-.165-.057-.165l-1.776,0v1.667l1.408,0a1.064,1.064,0,0,0,.05-.205l.031-.057h.191c-.005.252-.019.223-.019.451s.014.2.019.42h-.191l-.031-.1a1.2,1.2,0,0,0-.05-.212l-1.408,0v1.722h1.814c.107,0,.176.033.221-.336h.22c-.063.295-.1.625-.1.625l-3.056,0Zm-30.765,0s.2-.049.241-.11a1.074,1.074,0,0,0,.057-.462v-2.76a1.061,1.061,0,0,0-.057-.46c-.039-.062-.05-.088-.2-.093l-.034-.019v-.212h3.051l-.1.519-.221,0v-.047c0-.079,0-.165-.056-.165l-1.775,0v1.667l1.407,0,.082-.263h.19c-.006.252-.02.223-.02.451s.014.2.02.42h-.19l-.082-.312-1.407,0v1.722h1.813c.108,0,.178.033.221-.336h.222c-.063.295-.1.625-.1.625l-3.056,0Zm47.683-3.433h-.013v2.834a1.04,1.04,0,0,0,.058.461c.038.061.113.08.266.092l.008.018v.184c-.279-.006-.7-.006-.955,0v-.184l.008-.018c.152-.012.228-.031.267-.092a1.067,1.067,0,0,0,.056-.461v-2.76a1.065,1.065,0,0,0-.056-.461c-.04-.061-.115-.08-.267-.093l-.008-.018v-.185c.28.005.719.005.833,0l3.03,3.627h.018v-2.871a1.052,1.052,0,0,0-.056-.461c-.038-.061-.114-.08-.267-.093l-.008-.018v-.185c.253.005.675.005.954,0v.185l-.008.018c-.151.013-.228.031-.266.093a1.063,1.063,0,0,0-.057.461v3.516l-.551.006Zm-37.67,0h-.012v2.834a1.044,1.044,0,0,0,.057.461c.038.061.114.08.267.092l.007.018v.184c-.279-.006-.7-.006-.955,0v-.184l.008-.018c.152-.012.229-.031.267-.092a1.051,1.051,0,0,0,.057-.461v-2.76a1.049,1.049,0,0,0-.057-.461c-.038-.061-.115-.08-.267-.093l-.008-.018v-.185c.279.005.719.005.833,0l3.03,3.627h.02v-2.871a1.063,1.063,0,0,0-.057-.461c-.039-.061-.115-.08-.268-.093l-.007-.018v-.185c.253.005.676.005.955,0v.185l-.009.018c-.151.013-.228.031-.265.093a1.06,1.06,0,0,0-.058.461v3.516l-.552.006Zm49.1,3.591v-.184l.034-.018c.152-.007.227-.031.266-.093a5.447,5.447,0,0,0,.057-.946v-.36a.484.484,0,0,0-.057-.246l-.788-1.328c-.329-.553-.671-.9-.83-.915l-.119-.019v-.163h.686a.78.78,0,0,1,.329.22,1.693,1.693,0,0,1,.278.4l.906,1.565.115-.187.815-1.425c.252-.444.008-.418.008-.418v-.184h.917v.184a.79.79,0,0,0-.609.461l-.774,1.367h0l-.043.071-.173.305a1.168,1.168,0,0,0-.061.392v.28a5.446,5.446,0,0,0,.057.946c.038.061.115.086.267.093l.033.018v.184Zm-105.936,0v-.184c.37,0,.357-.123.357-.572l0-3.215h-1c-.191,0-.242.055-.254.2l-.263,0,0-.506h3.658l0,.5-.264,0c-.013-.147-.063-.2-.254-.2h-1.014l.006,3.215c0,.453.083.572.357.572v.184Zm12.053,0v-.184l.034-.019c.152-.007.16-.031.2-.092a1.045,1.045,0,0,0,.057-.461v-1.371h-2.536v1.371a1.06,1.06,0,0,0,.057.461c.038.061.041.085.193.092l.033.019v.184h-1.182v-.184l.033-.019c.152-.007.169-.031.208-.092a1.065,1.065,0,0,0,.056-.461v-2.76a1.06,1.06,0,0,0-.056-.46c-.039-.062-.056-.087-.208-.093l-.033-.018v-.184h1.182v.185l-.033.018c-.152.006-.155.03-.193.093a1.056,1.056,0,0,0-.057.46v1.1h2.536v-1.1a1.041,1.041,0,0,0-.057-.46c-.038-.062-.046-.087-.2-.093l-.034-.018v-.184h1.184v.185l-.034.018c-.152.006-.163.03-.2.093a1.056,1.056,0,0,0-.057.46v2.76a1.061,1.061,0,0,0,.057.461c.038.061.049.085.2.092l.034.019v.184Zm68.089-9.782c-.145,0-.866.008-3.648.008,0,0,.631,0,0,0h-4.783s-1.19-1.121-2.8-2.617l-1.726-1.609-7.611-6.925-.465-.451,11.206-11.454h2.694v.844c-1.062,0-.337.005-.716.005-1.232,0-9.883,9.45-9.883,9.45l10.057,9.112q2.429,2.205,2.765,2.4a3.673,3.673,0,0,0,.515.3,2.75,2.75,0,0,0,.743.1c2.185,0,2.2-.486,2.2-2.314,0-1.4-.029-14.415-.029-16.631s.016-2.417-.884-2.417v-.849h17.2l-.458,2.531h-.924c0-1.019-1.02-.992-2.433-.992l-9.287,0c0,1.206.022,2.333,0,3.386v5.518h4.98c3.031,0,3.263,0,3.263-.872h1v3.261h-1.007c0-.877-.224-.88-3.142-.88h-5.1v9.577h9.862c1.369,0,2.23.009,2.551-1.5h1.138l-.448,3.027-3.493,0C-1567.512-166.012-1568.805-166.012-1578.382-166.02Zm16.409.007v-.852c.944,0,.912-.349.912-2.268,0-6.783-.017-7.167.028-17.288,0-1.547.008-1.815-.94-1.815v-.834h4.024s1.625,2.084,2.065,2.656l3.42,4.13,4.988,5.893q2.4,2.819,3.85,4.437c.615.713,1.043,1.274,1.461,1.684,0,0,.022-14.318.022-15.743,0-2.063-.012-2.217-.829-2.217v-.84h3.3v.834c-.807,0-.816.094-.816,2.231v19.99h-1.708l-17.2-19.662s-.016,15.111-.016,16.567c0,1.941.044,2.248.861,2.248v.849Zm-42.091,0v-.788c.906,0,.925-.277.925-2.375V-185.8c0-2.028-.034-2.487-.925-2.487v-.779l2.059,0H-1599v.787c-.906,0-.925.278-.925,2.375v16.627c0,2.028.035,2.483.925,2.483v.784c-.416,0-1.9,0-2.873,0h-2.193Zm-24.18,0v-.788c.907,0,.925-.277.925-2.375V-185.8c0-2.028-.034-2.487-.925-2.487v-.779c1.728,0,9.132-.034,10.046-.034a17.768,17.768,0,0,1,6.586,1.015,9.741,9.741,0,0,1,4.23,3.4,9.625,9.625,0,0,1,1.739,5.824,12.928,12.928,0,0,1-.82,4.625,12.4,12.4,0,0,1-2.222,3.773,12.163,12.163,0,0,1-3.01,2.555,13.688,13.688,0,0,1-3.369,1.42,19.2,19.2,0,0,1-4.839.479Zm4.036-11.093.028,9.439h4.018c4.312,0,5.723-.746,6.488-1.18a8.384,8.384,0,0,0,2.219-1.915,8.749,8.749,0,0,0,1.649-3.237,14.416,14.416,0,0,0,.578-4.081,11.22,11.22,0,0,0-1.113-5.184,7.542,7.542,0,0,0-3.357-3.318c-1.5-.769-3.8-.971-10.51-.971C-1624.238-187.022-1624.208-177.107-1624.208-177.107Zm-32.727,6.345q-1.42-1.961-2.507-3.274-1.754-2.17-3.342-3.937l.167-.486q.87.049,1.322.048a6.758,6.758,0,0,0,4.622-1.4,4.708,4.708,0,0,0,1.574-3.7,4.156,4.156,0,0,0-1.359-3.254,6.13,6.13,0,0,0-4.109-1.18c-1.152,0-2.859,0-4.043,0,0,.59-.007,17.479-.007,18.876,0,1.471,0,2.2.9,2.2v.852h-4.947v-.85c.908,0,.908-.7.908-2.4,0-.227,0-15.14,0-16.547,0-1.7.02-2.419-.916-2.419v-.848c.457,0,9-.028,9.277-.028a14.311,14.311,0,0,1,4.667.553,4.518,4.518,0,0,1,2.271,1.8,4.88,4.88,0,0,1,.8,2.705,5.5,5.5,0,0,1-.756,2.714,6.2,6.2,0,0,1-2.19,2.243,11.646,11.646,0,0,1-3.732,1.381q.418.568,1.972,2.531l4.212,5.57c1.45,2.11,2.292,2.746,3.522,2.746,2.185,0,2.266-.486,2.266-2.314,0-1.4-.1-14.415-.1-16.63s.016-2.417-.884-2.417v-.849h17.2l-.458,2.532h-.924c0-1.02-1.021-.992-2.434-.992l-9.288,0c0,1.206.023,2.333,0,3.386v5.517h4.981c3.031,0,3.263,0,3.263-.871h.877v3.261h-.884c0-.877-.224-.881-3.141-.881h-5.1v9.576h9.863c1.368,0,2.23.009,2.552-1.5h1.138l-.448,3.02-23.147.009Q-1654.379-167.23-1656.935-170.763Z" transform="translate(1668.672 189.104)"/>
</svg>
