<svg xmlns="http://www.w3.org/2000/svg" width="45" height="45" viewBox="0 0 45 45"><g transform="translate(-610 -878)"><g transform="translate(610 878)" fill="none" stroke="#fff" stroke-width="1"><circle cx="22.5" cy="22.5" r="22.5" stroke="none"/><circle cx="22.5" cy="22.5" r="22" fill="none"/></g><g transform="translate(-2710 361)"><g transform="translate(3336 529)"><path d="M14.793,0A6.953,6.953,0,0,0,8,7.161c0,3.4,4.67,8.972,6.114,10.642a.817.817,0,0,0,.679.311.864.864,0,0,0,.679-.311c1.444-1.642,6.114-7.3,6.114-10.642A6.953,6.953,0,0,0,14.793,0Zm0,16.3C12.217,13.275,9.5,9.284,9.5,7.161A5.446,5.446,0,0,1,14.793,1.5a5.5,5.5,0,0,1,5.293,5.661C20.086,9.284,17.369,13.275,14.793,16.3Z" transform="translate(-8)" fill="#fff"/><path d="M24.329,13.3a3.029,3.029,0,1,0,3.029,3.029A3.032,3.032,0,0,0,24.329,13.3Zm0,4.529a1.5,1.5,0,1,1,1.5-1.5A1.51,1.51,0,0,1,24.329,17.829Z" transform="translate(-17.536 -9.536)" fill="#fff"/></g><path d="M9.272,29.3H.408c-.242,0-.408.311-.408.764s.166.764.408.764H9.288c.242,0,.408-.311.408-.764C9.681,29.611,9.514,29.3,9.272,29.3Z" transform="translate(3337.95 519.846)" fill="#fff"/></g></g></svg>