<svg xmlns="http://www.w3.org/2000/svg" width="23.06" height="30.746" viewBox="0 0 23.06 30.746">
  <g id="PIN_MAPS" transform="translate(-863 -3362.254)">
    <g id="Group_11" data-name="Group 11" transform="translate(-1154 -1338.746)">
      <path id="Path_122" data-name="Path 122" d="M-6.155-8.374a1.442,1.442,0,0,0,2.37,0C4.94-21.023,6.56-22.321,6.56-26.97A11.53,11.53,0,0,0-4.97-38.5,11.53,11.53,0,0,0-16.5-26.97C-16.5-22.321-14.88-21.023-6.155-8.374Z" transform="translate(2033.5 4739.5)"/>
      <path id="KERASTASE_LOGO" d="M-1555.736,531.143l-4.233-5.439s-.082-.111-.161-.125v5.564h-1.162v-10.91h1.162v5.091c.085,0,.2-.142.2-.142l4.409-4.95h1.2l-4.8,4.891,4.911,6.019Z" transform="translate(3587.09 4186.357)" fill="#fff"/>
    </g>
  </g>
</svg>
